<svg width="32" height="32" viewBox="0 0 32 32" fill="none" xmlns="http://www.w3.org/2000/svg">
<path fill-rule="evenodd" clip-rule="evenodd" d="M16 31C24.2843 31 31 24.2843 31 16C31 7.71573 24.2843 1 16 1C7.71573 1 1 7.71573 1 16C1 24.2843 7.71573 31 16 31Z" fill="#2F3A4E" stroke="#DFDFDF" stroke-width="0.4"/>
<path fill-rule="evenodd" clip-rule="evenodd" d="M16.0013 15.175L19.0888 12.0875C19.3166 11.8597 19.686 11.8597 19.9138 12.0875C20.1416 12.3153 20.1416 12.6847 19.9138 12.9125L16.8263 16L19.9138 19.0875C20.1416 19.3153 20.1416 19.6847 19.9138 19.9125C19.686 20.1403 19.3166 20.1403 19.0888 19.9125L16.0013 16.825L12.9138 19.9125C12.686 20.1403 12.3166 20.1403 12.0888 19.9125C11.861 19.6847 11.861 19.3153 12.0888 19.0875L15.1763 16L12.0888 12.9125C11.861 12.6847 11.861 12.3153 12.0888 12.0875C12.3166 11.8597 12.686 11.8597 12.9138 12.0875L16.0013 15.175Z" fill="#D5D5D5"/>
<mask id="mask0_0_20608" style="mask-type:luminance" maskUnits="userSpaceOnUse" x="11" y="11" width="10" height="10">
<path fill-rule="evenodd" clip-rule="evenodd" d="M16.0013 15.175L19.0888 12.0875C19.3166 11.8597 19.686 11.8597 19.9138 12.0875C20.1416 12.3153 20.1416 12.6847 19.9138 12.9125L16.8263 16L19.9138 19.0875C20.1416 19.3153 20.1416 19.6847 19.9138 19.9125C19.686 20.1403 19.3166 20.1403 19.0888 19.9125L16.0013 16.825L12.9138 19.9125C12.686 20.1403 12.3166 20.1403 12.0888 19.9125C11.861 19.6847 11.861 19.3153 12.0888 19.0875L15.1763 16L12.0888 12.9125C11.861 12.6847 11.861 12.3153 12.0888 12.0875C12.3166 11.8597 12.686 11.8597 12.9138 12.0875L16.0013 15.175Z" fill="white"/>
</mask>
<g mask="url(#mask0_0_20608)">
</g>
</svg>
