<svg width="630" height="736" viewBox="0 0 630 736" fill="none" xmlns="http://www.w3.org/2000/svg">
<rect x="0.15" y="0.15" width="629.7" height="735.062" rx="23.85" fill="white" stroke="#B9B9B9" stroke-width="0.3"/>
<path d="M496.598 102.109H133.402C126.001 102.109 120 108.11 120 115.515V385.628C120 393.032 126.001 399.034 133.402 399.034H496.597C503.999 399.034 509.999 393.032 509.999 385.628V115.515C510 108.11 503.999 102.109 496.598 102.109Z" fill="#1685FB"/>
<path d="M509.998 385.625V115.517C509.998 108.107 503.995 102.11 496.595 102.11H475.016C482.416 102.11 488.419 108.107 488.419 115.517V385.624C488.419 393.034 482.416 399.031 475.016 399.031H496.595C503.995 399.031 509.998 393.035 509.998 385.625Z" fill="#4C60E1"/>
<path d="M510 160.162V115.517C510 108.107 503.997 102.11 496.597 102.11H133.403C126.003 102.111 120 108.108 120 115.517V160.162H510Z" fill="#E3F4FF"/>
<path d="M509.998 160.162V115.517C509.998 108.107 503.995 102.11 496.595 102.11H475.016C482.416 102.11 488.419 108.107 488.419 115.517V160.162H509.998Z" fill="#BDDFF4"/>
<path d="M195.416 136.968H195.342C192.092 136.968 189.457 134.332 189.457 131.081C189.457 127.83 192.092 125.195 195.342 125.195C198.592 125.195 201.264 127.83 201.264 131.081C201.264 134.332 198.666 136.968 195.416 136.968Z" fill="#54DDAC"/>
<path d="M176.134 137.024C172.912 137.024 170.284 134.429 170.25 131.198C170.216 127.947 172.823 125.285 176.074 125.25C179.289 125.207 182.023 127.824 182.057 131.075C182.091 134.327 179.52 136.989 176.27 137.023L176.196 137.024C176.176 137.024 176.154 137.024 176.134 137.024Z" fill="#FDC142"/>
<path d="M156.923 137.08C153.701 137.08 151.072 134.485 151.039 131.254C151.006 128.002 153.613 125.339 156.863 125.306C156.884 125.306 156.905 125.306 156.925 125.306C160.148 125.306 162.813 127.901 162.846 131.131C162.88 134.382 160.309 137.045 157.058 137.079L156.985 137.08C156.965 137.08 156.943 137.08 156.923 137.08Z" fill="#FC3E81"/>
<path d="M251.661 137.08H231.237C227.986 137.08 225.352 134.444 225.352 131.193C225.352 127.942 227.986 125.307 231.237 125.307H251.661C254.911 125.307 257.546 127.942 257.546 131.193C257.546 134.444 254.911 137.08 251.661 137.08Z" fill="#BDDFF4"/>
<path d="M246.66 243.593H241.554V236.638C241.554 230.84 236.848 226.14 231.042 226.14C225.237 226.14 220.53 230.84 220.53 236.638V243.593H196L213.664 213.727C216.616 208.735 214.958 202.297 209.959 199.349C204.96 196.4 198.514 198.057 195.562 203.048L168.531 248.752C166.612 251.997 166.582 256.022 168.453 259.295C170.324 262.569 173.808 264.589 177.582 264.589H220.531V296.228C220.531 302.026 225.237 306.727 231.043 306.727C236.849 306.727 241.555 302.026 241.555 296.228V264.589H246.661C252.466 264.589 257.173 259.889 257.173 254.091C257.172 248.293 252.465 243.593 246.66 243.593Z" fill="#FD9E28"/>
<path d="M452.422 243.593H447.317V236.638C447.317 230.84 442.61 226.14 436.805 226.14C430.999 226.14 426.293 230.84 426.293 236.638V243.593H401.762L419.426 213.727C422.378 208.735 420.719 202.297 415.721 199.349C410.722 196.4 404.276 198.057 401.324 203.048L374.293 248.752C372.373 251.997 372.344 256.022 374.214 259.295C376.085 262.569 379.57 264.589 383.344 264.589H426.293V296.228C426.293 302.026 430.999 306.727 436.805 306.727C442.61 306.727 447.317 302.026 447.317 296.228V264.589H452.422C458.228 264.589 462.934 259.889 462.934 254.091C462.934 248.293 458.228 243.593 452.422 243.593Z" fill="#FD9E28"/>
<path fill-rule="evenodd" clip-rule="evenodd" d="M301.551 306.725H328.453C341.762 306.725 352.59 295.912 352.59 282.619V221.993C352.59 208.701 341.762 197.887 328.453 197.887H301.551C288.242 197.887 277.414 208.7 277.414 221.993V282.619C277.414 295.911 288.242 306.725 301.551 306.725ZM300.37 226.144C300.37 223.206 302.765 220.814 305.707 220.814H324.296C327.239 220.814 329.633 223.206 329.633 226.144V278.468C329.633 281.407 327.239 283.798 324.296 283.798H305.707C302.765 283.798 300.37 281.406 300.37 278.468V226.144Z" fill="#FD9E28"/>
<path d="M403.274 374.579C400.011 374.579 397.328 371.934 397.328 368.671C397.328 365.408 399.936 362.763 403.199 362.763H403.274C406.537 362.763 409.182 365.408 409.182 368.671C409.182 371.934 406.537 374.579 403.274 374.579Z" fill="#E3F4FF"/>
<path d="M422.841 374.636C419.578 374.636 416.895 371.991 416.895 368.728C416.895 365.465 419.502 362.82 422.766 362.82H422.841C426.104 362.82 428.749 365.465 428.749 368.728C428.749 371.991 426.104 374.636 422.841 374.636Z" fill="#E3F4FF"/>
<path d="M442.408 374.693C442.388 374.693 442.367 374.693 442.346 374.693C439.083 374.66 436.428 371.987 436.461 368.724C436.495 365.482 439.096 362.876 442.331 362.876C442.352 362.876 442.372 362.876 442.393 362.876L442.468 362.876C445.731 362.91 448.349 365.582 448.315 368.846C448.282 372.087 445.642 374.693 442.408 374.693Z" fill="#E3F4FF"/>
<path d="M189.839 350.314H170.271C167.008 350.314 164.363 347.692 164.363 344.458C164.363 341.223 167.008 338.602 170.271 338.602H189.839C193.102 338.602 195.747 341.223 195.747 344.458C195.747 347.692 193.102 350.314 189.839 350.314Z" fill="#E3F4FF"/>
<path d="M209.406 374.639H170.271C167.008 374.639 164.363 372.017 164.363 368.783C164.363 365.548 167.008 362.926 170.271 362.926H209.406C212.669 362.926 215.314 365.548 215.314 368.783C215.314 372.017 212.669 374.639 209.406 374.639Z" fill="#E3F4FF"/>
</svg>
