<svg width="137" height="40" viewBox="0 0 137 40" fill="none" xmlns="http://www.w3.org/2000/svg">
<rect x="0.2" y="0.2" width="136.6" height="39.6" rx="5.8" stroke="#EBEBEB" stroke-width="0.4"/>
<path d="M54.106 25V15.13H55.604L59.104 21.584L62.59 15.13H64.06V25H62.436V18.35L59.608 23.502H58.558L55.73 18.378V25H54.106ZM69.7614 25.14C68.9867 25.14 68.3194 24.9953 67.7594 24.706C67.1994 24.4167 66.7654 24.006 66.4574 23.474C66.1587 22.942 66.0094 22.312 66.0094 21.584C66.0094 20.8747 66.154 20.254 66.4434 19.722C66.742 19.19 67.148 18.7747 67.6614 18.476C68.184 18.168 68.7767 18.014 69.4394 18.014C70.41 18.014 71.1754 18.322 71.7354 18.938C72.3047 19.554 72.5894 20.394 72.5894 21.458V21.976H67.6894C67.82 23.1987 68.52 23.81 69.7894 23.81C70.172 23.81 70.5547 23.754 70.9374 23.642C71.32 23.5207 71.67 23.334 71.9874 23.082L72.4774 24.258C72.1507 24.5287 71.74 24.7433 71.2454 24.902C70.7507 25.0607 70.256 25.14 69.7614 25.14ZM69.5094 19.204C68.996 19.204 68.5807 19.3627 68.2634 19.68C67.946 19.9973 67.7547 20.4267 67.6894 20.968H71.1334C71.096 20.3987 70.9374 19.9647 70.6574 19.666C70.3867 19.358 70.004 19.204 69.5094 19.204ZM76.8043 25.14C76.2257 25.14 75.6843 25.07 75.1803 24.93C74.6763 24.79 74.2563 24.5893 73.9203 24.328L74.3683 23.18C74.7137 23.4133 75.101 23.5953 75.5303 23.726C75.9597 23.8473 76.389 23.908 76.8183 23.908C77.2663 23.908 77.5977 23.8333 77.8123 23.684C78.0363 23.5253 78.1483 23.32 78.1483 23.068C78.1483 22.676 77.859 22.424 77.2803 22.312L75.8803 22.046C74.695 21.822 74.1023 21.206 74.1023 20.198C74.1023 19.75 74.2237 19.3627 74.4663 19.036C74.7183 18.7093 75.0637 18.4573 75.5023 18.28C75.941 18.1027 76.445 18.014 77.0143 18.014C77.4997 18.014 77.9663 18.084 78.4143 18.224C78.8623 18.3547 79.245 18.5553 79.5623 18.826L79.0863 19.974C78.8157 19.75 78.489 19.5727 78.1063 19.442C77.733 19.3113 77.3737 19.246 77.0283 19.246C76.571 19.246 76.2303 19.3253 76.0063 19.484C75.7917 19.6427 75.6843 19.8527 75.6843 20.114C75.6843 20.5247 75.9503 20.7767 76.4823 20.87L77.8823 21.136C78.489 21.248 78.9463 21.4533 79.2543 21.752C79.5717 22.0507 79.7303 22.452 79.7303 22.956C79.7303 23.6373 79.4643 24.174 78.9323 24.566C78.4003 24.9487 77.691 25.14 76.8043 25.14ZM83.9634 25.14C83.3847 25.14 82.8434 25.07 82.3394 24.93C81.8354 24.79 81.4154 24.5893 81.0794 24.328L81.5274 23.18C81.8727 23.4133 82.26 23.5953 82.6894 23.726C83.1187 23.8473 83.548 23.908 83.9774 23.908C84.4254 23.908 84.7567 23.8333 84.9714 23.684C85.1954 23.5253 85.3074 23.32 85.3074 23.068C85.3074 22.676 85.018 22.424 84.4394 22.312L83.0394 22.046C81.854 21.822 81.2614 21.206 81.2614 20.198C81.2614 19.75 81.3827 19.3627 81.6254 19.036C81.8774 18.7093 82.2227 18.4573 82.6614 18.28C83.1 18.1027 83.604 18.014 84.1734 18.014C84.6587 18.014 85.1254 18.084 85.5734 18.224C86.0214 18.3547 86.404 18.5553 86.7214 18.826L86.2454 19.974C85.9747 19.75 85.648 19.5727 85.2654 19.442C84.892 19.3113 84.5327 19.246 84.1874 19.246C83.73 19.246 83.3894 19.3253 83.1654 19.484C82.9507 19.6427 82.8434 19.8527 82.8434 20.114C82.8434 20.5247 83.1094 20.7767 83.6414 20.87L85.0414 21.136C85.648 21.248 86.1054 21.4533 86.4134 21.752C86.7307 22.0507 86.8894 22.452 86.8894 22.956C86.8894 23.6373 86.6234 24.174 86.0914 24.566C85.5594 24.9487 84.85 25.14 83.9634 25.14ZM90.8704 25.14C90.3757 25.14 89.9324 25.0467 89.5404 24.86C89.1577 24.664 88.8544 24.4027 88.6304 24.076C88.4157 23.7493 88.3084 23.3807 88.3084 22.97C88.3084 22.466 88.439 22.0693 88.7004 21.78C88.9617 21.4813 89.3864 21.2667 89.9744 21.136C90.5624 21.0053 91.351 20.94 92.3404 20.94H92.8304V20.646C92.8304 20.1793 92.7277 19.8433 92.5224 19.638C92.317 19.4327 91.9717 19.33 91.4864 19.33C91.1037 19.33 90.7117 19.3907 90.3104 19.512C89.909 19.624 89.503 19.8013 89.0924 20.044L88.5884 18.854C88.831 18.686 89.1157 18.5413 89.4424 18.42C89.7784 18.2893 90.1284 18.1913 90.4924 18.126C90.8657 18.0513 91.2157 18.014 91.5424 18.014C92.541 18.014 93.283 18.2473 93.7684 18.714C94.2537 19.1713 94.4964 19.8853 94.4964 20.856V25H92.8584V23.908C92.6997 24.2907 92.4477 24.594 92.1024 24.818C91.757 25.0327 91.3464 25.14 90.8704 25.14ZM91.2344 23.936C91.6917 23.936 92.0697 23.7773 92.3684 23.46C92.6764 23.1427 92.8304 22.7413 92.8304 22.256V21.948H92.3544C91.477 21.948 90.8657 22.018 90.5204 22.158C90.1844 22.2887 90.0164 22.5313 90.0164 22.886C90.0164 23.194 90.1237 23.446 90.3384 23.642C90.553 23.838 90.8517 23.936 91.2344 23.936ZM99.7877 27.66C99.153 27.66 98.5557 27.5853 97.9957 27.436C97.445 27.296 96.9597 27.0767 96.5397 26.778L97.0437 25.56C97.4357 25.8213 97.8557 26.0127 98.3037 26.134C98.7517 26.2647 99.1997 26.33 99.6477 26.33C100.898 26.33 101.524 25.728 101.524 24.524V23.586C101.328 23.9687 101.024 24.272 100.614 24.496C100.212 24.72 99.7644 24.832 99.2697 24.832C98.6537 24.832 98.117 24.692 97.6597 24.412C97.2024 24.1227 96.8477 23.7213 96.5957 23.208C96.3437 22.6947 96.2177 22.0973 96.2177 21.416C96.2177 20.7347 96.3437 20.142 96.5957 19.638C96.8477 19.1247 97.2024 18.728 97.6597 18.448C98.117 18.1587 98.6537 18.014 99.2697 18.014C99.783 18.014 100.24 18.1307 100.642 18.364C101.043 18.588 101.337 18.8913 101.524 19.274V18.154H103.232V24.314C103.232 25.4247 102.938 26.26 102.35 26.82C101.762 27.38 100.908 27.66 99.7877 27.66ZM99.7457 23.502C100.287 23.502 100.716 23.3153 101.034 22.942C101.351 22.5687 101.51 22.06 101.51 21.416C101.51 20.772 101.351 20.268 101.034 19.904C100.716 19.5307 100.287 19.344 99.7457 19.344C99.2044 19.344 98.775 19.5307 98.4577 19.904C98.1404 20.268 97.9817 20.772 97.9817 21.416C97.9817 22.06 98.1404 22.5687 98.4577 22.942C98.775 23.3153 99.2044 23.502 99.7457 23.502ZM108.742 25.14C107.967 25.14 107.3 24.9953 106.74 24.706C106.18 24.4167 105.746 24.006 105.438 23.474C105.139 22.942 104.99 22.312 104.99 21.584C104.99 20.8747 105.135 20.254 105.424 19.722C105.723 19.19 106.129 18.7747 106.642 18.476C107.165 18.168 107.757 18.014 108.42 18.014C109.391 18.014 110.156 18.322 110.716 18.938C111.285 19.554 111.57 20.394 111.57 21.458V21.976H106.67C106.801 23.1987 107.501 23.81 108.77 23.81C109.153 23.81 109.535 23.754 109.918 23.642C110.301 23.5207 110.651 23.334 110.968 23.082L111.458 24.258C111.131 24.5287 110.721 24.7433 110.226 24.902C109.731 25.0607 109.237 25.14 108.742 25.14ZM108.49 19.204C107.977 19.204 107.561 19.3627 107.244 19.68C106.927 19.9973 106.735 20.4267 106.67 20.968H110.114C110.077 20.3987 109.918 19.9647 109.638 19.666C109.367 19.358 108.985 19.204 108.49 19.204Z" fill="white"/>
<path d="M38.6875 15.5C39.3984 15.5 40 16.1016 40 16.8125V24.6875C40 25.4258 39.3984 26 38.6875 26H27.3125C26.5742 26 26 25.4258 26 24.6875V16.8125C26 16.1016 26.5742 15.5 27.3125 15.5H38.6875ZM38.6875 16.8125H27.3125V17.9336C27.9141 18.4531 28.8984 19.2188 30.9766 20.8594C31.4414 21.2148 32.3438 22.0898 33 22.0625C33.6289 22.0898 34.5312 21.2148 34.9961 20.8594C37.0742 19.2188 38.0586 18.4531 38.6875 17.9336V16.8125ZM27.3125 24.6875H38.6875V19.6289C38.0586 20.1211 37.1562 20.832 35.8164 21.8984C35.1875 22.3633 34.1484 23.4023 33 23.375C31.8242 23.4023 30.7578 22.3633 30.1562 21.8984C28.8164 20.832 27.9141 20.1211 27.3125 19.6289V24.6875Z" fill="#D2D2D2"/>
</svg>
