<svg width="1920" height="1080" viewBox="0 0 1920 1080" fill="none" xmlns="http://www.w3.org/2000/svg">
<g clip-path="url(#clip0_0_1846)">
<rect width="1920" height="1080" fill="white"/>
<rect width="1920" height="1080" fill="#4880FF"/>
<path fill-rule="evenodd" clip-rule="evenodd" d="M363.335 1393.35C692.865 1393.35 960.001 1191.12 960.001 941.664C960.001 808.304 534.872 918.868 413.462 836.187C307.766 764.207 516.699 489.981 363.335 489.981C33.8047 489.981 -233.332 692.206 -233.332 941.664C-233.332 1191.12 33.8047 1393.35 363.335 1393.35Z" fill="#568AFF"/>
<path opacity="0.541829" fill-rule="evenodd" clip-rule="evenodd" d="M1152.63 -210.419C1086.01 75.5981 1338.29 348.345 1716.12 398.777C1918.1 425.738 1836.59 34.3927 1986.36 -54.2706C2116.75 -131.458 2489.85 105.327 2520.86 -27.7866C2587.48 -313.804 2335.2 -586.55 1957.37 -636.983C1579.55 -687.415 1219.25 -496.436 1152.63 -210.419Z" fill="#568AFF"/>
<path opacity="0.6" fill-rule="evenodd" clip-rule="evenodd" d="M292.684 -235.684C-16.9723 -150.364 -176.633 108.83 -63.9267 343.243C-3.67449 468.56 345.863 254.593 497.307 300.853C629.15 341.126 556.713 652.909 700.829 613.201C1010.49 527.882 1170.15 268.687 1057.44 34.2743C944.734 -200.139 602.341 -321.003 292.684 -235.684Z" fill="#568AFF"/>
<path fill-rule="evenodd" clip-rule="evenodd" d="M2675.17 1042.05C2748.69 726.391 2470.27 425.375 2053.28 369.715C1830.36 339.96 1920.32 771.867 1755.02 869.72C1611.12 954.908 1199.35 693.581 1165.13 840.491C1091.6 1156.15 1370.03 1457.17 1787.02 1512.83C2204 1568.49 2601.64 1357.71 2675.17 1042.05Z" fill="#568AFF"/>
</g>
<defs>
<clipPath id="clip0_0_1846">
<rect width="1920" height="1080" fill="white"/>
</clipPath>
</defs>
</svg>
